<svg xmlns="http://www.w3.org/2000/svg" viewBox="181.95 258.02 219.65 13.86"><path d="M294.864 25.86c-.842-.046-1.777.587-2.282 1.626-.314.647-.673 1.89-.829 3.02-.155-1.13-.515-2.373-.83-3.02-.62-1.279-1.892-1.942-2.842-1.481-.95.46-1.219 1.872-.598 3.15.267.552.86 1.396 1.517 2.143-1.03-.23-2.154-.34-2.806-.297-1.418.096-2.51 1.027-2.44 2.08.07 1.055 1.278 1.833 2.696 1.737.718-.048 1.976-.353 3.036-.778-.905.696-1.808 1.625-2.214 2.218-.652.953-.738 2.078-.279 2.786l.002-.001a1.5 1.5 0 0 0 .406.417c.872.596 2.227.13 3.03-1.042.34-.497.77-1.407 1.091-2.331.321.924.75 1.834 1.09 2.33.802 1.174 2.158 1.64 3.03 1.043.162-.112.3-.253.406-.416v-.001c.457-.71.374-1.832-.278-2.785-.406-.593-1.309-1.522-2.213-2.218 1.059.425 2.317.73 3.035.778 1.418.096 2.623-.682 2.694-1.736.07-1.054-1.02-1.985-2.437-2.08-.537-.037-1.394.039-2.254.191.621-.72 1.172-1.508 1.428-2.034.62-1.279.354-2.69-.597-3.151a1.475 1.475 0 0 0-.561-.144zm-105.415.866c-1.008.014-1.877.446-2.256 1.228a1.944 1.944 0 0 0-.19.739c-.062 1.11.77 2.34 2.138 3.005.852.413 2.49.885 3.979 1.09-1.49.206-3.127.68-3.979 1.093-1.683.817-2.556 2.493-1.948 3.744.607 1.251 2.464 1.603 4.148.787 1.01-.49 2.769-1.794 3.885-3.03 1.57-1.76 1.699-3.49 0-5.196-1.117-1.232-2.869-2.53-3.876-3.019a4.237 4.237 0 0 0-1.892-.44zm204.64 0a4.236 4.236 0 0 0-1.892.441c-1.007.489-2.76 1.787-3.876 3.02-1.705 1.705-1.577 3.435 0 5.196 1.116 1.235 2.876 2.539 3.885 3.029 1.684.816 3.541.464 4.149-.787.607-1.251-.265-2.927-1.95-3.744-.851-.413-2.489-.887-3.978-1.092 1.49-.206 3.127-.678 3.979-1.091 1.368-.664 2.2-1.896 2.139-3.005a2.08 2.08 0 0 0-.19-.74c-.38-.781-1.249-1.213-2.257-1.227zm-188.35 1.659a1.381 1.381 0 0 0-1.36 1.402v1.468h-3.548a1.534 1.534 0 1 0 0 3.069h3.548v1.468a1.382 1.382 0 1 0 2.764 0v-1.468h73.77a1.534 1.534 0 1 0 0-3.069h-73.77v-1.468a1.381 1.381 0 0 0-1.404-1.402zm172.018 0a1.381 1.381 0 0 0-1.36 1.402v1.468h-73.77a1.534 1.534 0 1 0 0 3.069h73.77v1.468a1.382 1.382 0 1 0 2.764 0v-1.468h3.547a1.534 1.534 0 1 0 0-3.069h-3.547v-1.468a1.381 1.381 0 0 0-1.404-1.402zm-193.41 2.004a2.4 2.4 0 0 0-2.401 2.4 2.4 2.4 0 0 0 2.4 2.4 2.4 2.4 0 0 0 2.401-2.4 2.4 2.4 0 0 0-2.4-2.4zm214.844 0a2.4 2.4 0 0 0-2.4 2.4 2.4 2.4 0 0 0 2.4 2.4 2.4 2.4 0 0 0 2.401-2.4 2.4 2.4 0 0 0-2.4-2.4z" style="opacity:1;fill:#1a1a1a;fill-opacity:1;stroke:none;stroke-width:.30000001;stroke-linecap:round;stroke-linejoin:round;stroke-miterlimit:4;stroke-dasharray:none;stroke-dashoffset:254.8346405;stroke-opacity:1;paint-order:normal" transform="translate(0 232.167)"/></svg>